<svg xmlns="http://www.w3.org/2000/svg" viewBox="0 0 800 800" width="800" height="800" role="img" aria-hidden="true">
  <defs>
    <linearGradient id="bg" x1="0" y1="0" x2="0" y2="1">
      <stop offset="0" stop-color="#101418"/>
      <stop offset="0.55" stop-color="#0A0D10"/>
      <stop offset="1" stop-color="#050709"/>
    </linearGradient>
    <radialGradient id="keyLight" cx="50%" cy="50%" r="50%">
      <stop offset="0" stop-color="#DE8F4A" stop-opacity="0.55"/>
      <stop offset="0.55" stop-color="#DE8F4A" stop-opacity="0.14"/>
      <stop offset="1" stop-color="#DE8F4A" stop-opacity="0"/>
    </radialGradient>
    <radialGradient id="halo" cx="50%" cy="50%" r="50%">
      <stop offset="0" stop-color="#d18548" stop-opacity="0.3"/>
      <stop offset="1" stop-color="#DE8F4A" stop-opacity="0"/>
    </radialGradient>
    <radialGradient id="vignette" cx="50%" cy="46%" r="62%">
      <stop offset="0.45" stop-color="#000" stop-opacity="0"/>
      <stop offset="1" stop-color="#000" stop-opacity="0.72"/>
    </radialGradient>
    <linearGradient id="ceramic" x1="1" y1="0" x2="0" y2="0.35">
      <stop offset="0" stop-color="#55463b"/>
      <stop offset="0.42" stop-color="#2A2F36"/>
      <stop offset="1" stop-color="#0d0f12"/>
    </linearGradient>
    <linearGradient id="glass" x1="1" y1="0" x2="0" y2="0.3">
      <stop offset="0" stop-color="#F5F1EA" stop-opacity="0.16"/>
      <stop offset="0.4" stop-color="#F5F1EA" stop-opacity="0.05"/>
      <stop offset="1" stop-color="#000000" stop-opacity="0.34"/>
    </linearGradient>
    <linearGradient id="brew" x1="0" y1="0" x2="0" y2="1">
      <stop offset="0" stop-color="#8E4426"/>
      <stop offset="1" stop-color="#2A0D06"/>
    </linearGradient>
    <linearGradient id="cakeShade" x1="0" y1="0" x2="0" y2="1">
      <stop offset="0" stop-color="#a06249"/>
      <stop offset="1" stop-color="#220a05"/>
    </linearGradient>
    <linearGradient id="rim" x1="1" y1="0" x2="0" y2="0">
      <stop offset="0" stop-color="#DE8F4A" stop-opacity="0.34"/>
      <stop offset="0.32" stop-color="#DE8F4A" stop-opacity="0.05"/>
      <stop offset="1" stop-color="#000000" stop-opacity="0.3"/>
    </linearGradient>
    <linearGradient id="rimStroke" x1="1" y1="0" x2="0" y2="0">
      <stop offset="0" stop-color="#eab689" stop-opacity="0.9"/>
      <stop offset="0.42" stop-color="#DE8F4A" stop-opacity="0.16"/>
      <stop offset="1" stop-color="#DE8F4A" stop-opacity="0.03"/>
    </linearGradient>
    <filter id="blurSoft" x="-60%" y="-60%" width="220%" height="220%">
      <feGaussianBlur stdDeviation="22"/>
    </filter>
    <filter id="blurWide" x="-60%" y="-60%" width="220%" height="220%">
      <feGaussianBlur stdDeviation="70"/>
    </filter>
    <filter id="grain">
      <feTurbulence type="fractalNoise" baseFrequency="0.85" numOctaves="3" seed="93"/>
      <feColorMatrix type="saturate" values="0"/>
    </filter>
  </defs>

  <rect width="800" height="800" fill="url(#bg)"/>

  <!-- sıcak yan ışık -->
  <ellipse cx="690" cy="297.24" rx="360" ry="330" fill="url(#keyLight)"/>
  <ellipse cx="400" cy="430" rx="300" ry="260" fill="url(#halo)"/>

  <!-- zemin düzlemi -->
  <rect x="0" y="634" width="800" height="166" fill="#000" opacity="0.28"/>
  <ellipse cx="400" cy="666" rx="225" ry="46" fill="#000" opacity="0.6" filter="url(#blurWide)"/>
  <ellipse cx="370" cy="652" rx="142.5" ry="26" fill="#000" opacity="0.55" filter="url(#blurSoft)"/>

  <path d="M 362.13 364 C 417.87 282.79 306.4 196.5 390 110.21"
      fill="none" stroke="#F5F1EA" stroke-opacity="0.12" stroke-width="9.9" stroke-linecap="round" filter="url(#blurSoft)"/><path d="M 400 364 C 372.48 301.55 427.52 235.2 386.24 168.85"
      fill="none" stroke="#F5F1EA" stroke-opacity="0.16" stroke-width="9.53" stroke-linecap="round" filter="url(#blurSoft)"/><path d="M 454.58 364 C 495.71 284.25 413.45 199.51 475.15 114.77"
      fill="none" stroke="#F5F1EA" stroke-opacity="0.17" stroke-width="14.76" stroke-linecap="round" filter="url(#blurSoft)"/>
  
        
    <path d="M 515.36 444 C 607.36 438 607.36 578 515.36 568"
      fill="none" stroke="url(#ceramic)" stroke-width="22" stroke-linecap="round"/>
    <path d="M 515.36 444 C 607.36 438 607.36 578 515.36 568"
      fill="none" stroke="#DE8F4A" stroke-opacity="0.3" stroke-width="2" stroke-linecap="round"/>
  
        
    <path d="M 284 392 C 286 522.9 288 587.16 296 620 Q 296 630 325.12 632 L 474.88 632 Q 504 630 504 620 C 512 587.16 514 522.9 516 392 Z" fill="url(#ceramic)"/>
    <path d="M 284 392 C 286 522.9 288 587.16 296 620 Q 296 630 325.12 632 L 474.88 632 Q 504 630 504 620 C 512 587.16 514 522.9 516 392 Z" fill="url(#rim)" opacity="0.85"/>
    <path d="M 284 392 C 286 522.9 288 587.16 296 620 Q 296 630 325.12 632 L 474.88 632 Q 504 630 504 620 C 512 587.16 514 522.9 516 392 Z" fill="none" stroke="url(#rimStroke)" stroke-width="2.6"/>
  
        
    <ellipse cx="400" cy="392" rx="104" ry="25" fill="#1b0804"/>
    <ellipse cx="400" cy="392" rx="97.76" ry="22.5" fill="#DDB287"/>
    <ellipse cx="430.59" cy="387.5" rx="43.68" ry="10.5" fill="#DE8F4A" opacity="0.22"/>
    <ellipse cx="360" cy="397.5" rx="52" ry="10" fill="#150703" opacity="0.5"/>
  
      
  <circle cx="410.82" cy="378.07" r="2.16" fill="#8A4A1E" opacity="0.76"/><circle cx="381.82" cy="417.28" r="2.57" fill="#8A4A1E" opacity="0.64"/><circle cx="385.61" cy="365.82" r="2.25" fill="#8A4A1E" opacity="0.7"/><circle cx="321.36" cy="381.03" r="1.97" fill="#8A4A1E" opacity="0.64"/><circle cx="396.23" cy="408.72" r="2.6" fill="#8A4A1E" opacity="0.76"/><circle cx="333.07" cy="410.33" r="1.04" fill="#8A4A1E" opacity="0.51"/><circle cx="359.85" cy="402.55" r="2.69" fill="#8A4A1E" opacity="0.61"/><circle cx="342.03" cy="406.5" r="2.75" fill="#8A4A1E" opacity="0.65"/><circle cx="435.69" cy="410.8" r="2.13" fill="#8A4A1E" opacity="0.5"/><circle cx="462.3" cy="404.21" r="1.42" fill="#8A4A1E" opacity="0.62"/><circle cx="386.94" cy="389.19" r="2.53" fill="#8A4A1E" opacity="0.45"/><circle cx="390.62" cy="374.1" r="1.45" fill="#8A4A1E" opacity="0.61"/><circle cx="446.31" cy="376.48" r="1.74" fill="#8A4A1E" opacity="0.46"/><circle cx="457.91" cy="412.3" r="1.2" fill="#8A4A1E" opacity="0.83"/><circle cx="436.64" cy="411.42" r="1.37" fill="#8A4A1E" opacity="0.69"/><circle cx="396.78" cy="368.09" r="2.81" fill="#8A4A1E" opacity="0.76"/><circle cx="400.21" cy="382.82" r="2.29" fill="#8A4A1E" opacity="0.5"/><circle cx="346.6" cy="413.08" r="2.9" fill="#8A4A1E" opacity="0.55"/><circle cx="396.32" cy="402.38" r="1.3" fill="#8A4A1E" opacity="0.66"/><circle cx="467.54" cy="379" r="2.46" fill="#8A4A1E" opacity="0.82"/><circle cx="453.43" cy="379.44" r="1.93" fill="#8A4A1E" opacity="0.63"/><circle cx="474.99" cy="402.25" r="2.97" fill="#8A4A1E" opacity="0.57"/><circle cx="377.7" cy="383.03" r="1.25" fill="#8A4A1E" opacity="0.46"/><circle cx="445.53" cy="386.22" r="2.06" fill="#8A4A1E" opacity="0.55"/><circle cx="390.87" cy="417.75" r="2.85" fill="#8A4A1E" opacity="0.56"/><circle cx="449.94" cy="371.32" r="2.24" fill="#8A4A1E" opacity="0.56"/><circle cx="462.06" cy="396.42" r="1.76" fill="#8A4A1E" opacity="0.73"/><circle cx="364.29" cy="385.69" r="1.52" fill="#8A4A1E" opacity="0.46"/><circle cx="469.57" cy="400.05" r="1.18" fill="#8A4A1E" opacity="0.62"/><circle cx="315.52" cy="398.28" r="1.87" fill="#8A4A1E" opacity="0.67"/><g transform="translate(463.8 386) rotate(-16)">
        <rect x="-46" y="-9" width="92" height="18" rx="9" fill="#6B3A16"/>
        <rect x="-46" y="-9" width="92" height="7" rx="4" fill="#995c2b" opacity="0.75"/>
      </g>

  <!-- ışık huzmesi -->
  <ellipse cx="690" cy="387.24" rx="150" ry="220" fill="#DE8F4A" opacity="0.08" filter="url(#blurWide)"/>

  <rect width="800" height="800" fill="url(#vignette)"/>
  <rect width="800" height="800" filter="url(#grain)" opacity="0.07" style="mix-blend-mode:overlay"/>
</svg>
