<svg xmlns="http://www.w3.org/2000/svg" viewBox="0 0 800 800" width="800" height="800" role="img" aria-hidden="true">
  <defs>
    <linearGradient id="bg" x1="0" y1="0" x2="0" y2="1">
      <stop offset="0" stop-color="#101418"/>
      <stop offset="0.55" stop-color="#0A0D10"/>
      <stop offset="1" stop-color="#050709"/>
    </linearGradient>
    <radialGradient id="keyLight" cx="50%" cy="50%" r="50%">
      <stop offset="0" stop-color="#E4B46A" stop-opacity="0.55"/>
      <stop offset="0.55" stop-color="#E4B46A" stop-opacity="0.14"/>
      <stop offset="1" stop-color="#E4B46A" stop-opacity="0"/>
    </radialGradient>
    <radialGradient id="halo" cx="50%" cy="50%" r="50%">
      <stop offset="0" stop-color="#d49758" stop-opacity="0.3"/>
      <stop offset="1" stop-color="#E4B46A" stop-opacity="0"/>
    </radialGradient>
    <radialGradient id="vignette" cx="50%" cy="46%" r="62%">
      <stop offset="0.45" stop-color="#000" stop-opacity="0"/>
      <stop offset="1" stop-color="#000" stop-opacity="0.72"/>
    </radialGradient>
    <linearGradient id="ceramic" x1="1" y1="0" x2="0" y2="0.35">
      <stop offset="0" stop-color="#574f42"/>
      <stop offset="0.42" stop-color="#2A2F36"/>
      <stop offset="1" stop-color="#0d0f12"/>
    </linearGradient>
    <linearGradient id="glass" x1="1" y1="0" x2="0" y2="0.3">
      <stop offset="0" stop-color="#F5F1EA" stop-opacity="0.16"/>
      <stop offset="0.4" stop-color="#F5F1EA" stop-opacity="0.05"/>
      <stop offset="1" stop-color="#000000" stop-opacity="0.34"/>
    </linearGradient>
    <linearGradient id="brew" x1="0" y1="0" x2="0" y2="1">
      <stop offset="0" stop-color="#D7A662"/>
      <stop offset="1" stop-color="#7A4C1C"/>
    </linearGradient>
    <linearGradient id="cakeShade" x1="0" y1="0" x2="0" y2="1">
      <stop offset="0" stop-color="#ddb47b"/>
      <stop offset="1" stop-color="#623d16"/>
    </linearGradient>
    <linearGradient id="rim" x1="1" y1="0" x2="0" y2="0">
      <stop offset="0" stop-color="#E4B46A" stop-opacity="0.34"/>
      <stop offset="0.32" stop-color="#E4B46A" stop-opacity="0.05"/>
      <stop offset="1" stop-color="#000000" stop-opacity="0.3"/>
    </linearGradient>
    <linearGradient id="rimStroke" x1="1" y1="0" x2="0" y2="0">
      <stop offset="0" stop-color="#edce9e" stop-opacity="0.9"/>
      <stop offset="0.42" stop-color="#E4B46A" stop-opacity="0.16"/>
      <stop offset="1" stop-color="#E4B46A" stop-opacity="0.03"/>
    </linearGradient>
    <filter id="blurSoft" x="-60%" y="-60%" width="220%" height="220%">
      <feGaussianBlur stdDeviation="22"/>
    </filter>
    <filter id="blurWide" x="-60%" y="-60%" width="220%" height="220%">
      <feGaussianBlur stdDeviation="70"/>
    </filter>
    <filter id="grain">
      <feTurbulence type="fractalNoise" baseFrequency="0.85" numOctaves="3" seed="9"/>
      <feColorMatrix type="saturate" values="0"/>
    </filter>
  </defs>

  <rect width="800" height="800" fill="url(#bg)"/>

  <!-- sıcak yan ışık -->
  <ellipse cx="690" cy="291.79" rx="360" ry="330" fill="url(#keyLight)"/>
  <ellipse cx="400" cy="430" rx="300" ry="260" fill="url(#halo)"/>

  <!-- zemin düzlemi -->
  <rect x="0" y="628" width="800" height="172" fill="#000" opacity="0.28"/>
  <ellipse cx="400" cy="660" rx="393" ry="46" fill="#000" opacity="0.6" filter="url(#blurWide)"/>
  <ellipse cx="370" cy="646" rx="248.9" ry="26" fill="#000" opacity="0.55" filter="url(#blurSoft)"/>

  
  
        
    <ellipse cx="400" cy="646" rx="266" ry="61.18" fill="#0e1013"/>
    <ellipse cx="400" cy="636" rx="266" ry="61.18" fill="url(#ceramic)"/>
    <ellipse cx="400" cy="636" rx="263.34" ry="59.34" fill="none" stroke="#E4B46A" stroke-opacity="0.28" stroke-width="1.6"/>
    <ellipse cx="400" cy="638" rx="159.6" ry="33.65" fill="#0f1114" opacity="0.85"/>
    <path d="M 139.32 634 A 266 61.18 0 0 1 660.68 634"
      fill="none" stroke="#E4B46A" stroke-opacity="0.34" stroke-width="2.4" stroke-linecap="round"/>
  
        <g transform="translate(217.76 537.18) rotate(-27) scale(0.46)">
        <ellipse cx="0" cy="8" rx="66" ry="58" fill="#684118"/>
        <ellipse cx="0" cy="0" rx="64" ry="54" fill="#D7A662"/>
        <ellipse cx="-12" cy="-14" rx="44" ry="28" fill="#dfb881" opacity="0.75"/>
        <path d="M -46 22 C -18 34 18 34 46 22" fill="none" stroke="#553514" stroke-width="6" stroke-linecap="round" opacity="0.65"/>
      </g><g transform="translate(259.96 516.62) rotate(-18) scale(0.77)">
        <ellipse cx="0" cy="8" rx="66" ry="58" fill="#684118"/>
        <ellipse cx="0" cy="0" rx="64" ry="54" fill="#D7A662"/>
        <ellipse cx="-12" cy="-14" rx="44" ry="28" fill="#dfb881" opacity="0.75"/>
        <path d="M -46 22 C -18 34 18 34 46 22" fill="none" stroke="#553514" stroke-width="6" stroke-linecap="round" opacity="0.65"/>
      </g><g transform="translate(324.05 502.84) rotate(-9) scale(1)">
        <ellipse cx="0" cy="8" rx="66" ry="58" fill="#684118"/>
        <ellipse cx="0" cy="0" rx="64" ry="54" fill="#D7A662"/>
        <ellipse cx="-12" cy="-14" rx="44" ry="28" fill="#dfb881" opacity="0.75"/>
        <path d="M -46 22 C -18 34 18 34 46 22" fill="none" stroke="#553514" stroke-width="6" stroke-linecap="round" opacity="0.65"/>
      </g><g transform="translate(400 498) rotate(0) scale(1.08)">
        <ellipse cx="0" cy="8" rx="66" ry="58" fill="#684118"/>
        <ellipse cx="0" cy="0" rx="64" ry="54" fill="#D7A662"/>
        <ellipse cx="-12" cy="-14" rx="44" ry="28" fill="#dfb881" opacity="0.75"/>
        <path d="M -46 22 C -18 34 18 34 46 22" fill="none" stroke="#553514" stroke-width="6" stroke-linecap="round" opacity="0.65"/>
      </g><g transform="translate(475.95 502.84) rotate(9) scale(1)">
        <ellipse cx="0" cy="8" rx="66" ry="58" fill="#684118"/>
        <ellipse cx="0" cy="0" rx="64" ry="54" fill="#D7A662"/>
        <ellipse cx="-12" cy="-14" rx="44" ry="28" fill="#dfb881" opacity="0.75"/>
        <path d="M -46 22 C -18 34 18 34 46 22" fill="none" stroke="#553514" stroke-width="6" stroke-linecap="round" opacity="0.65"/>
      </g><g transform="translate(540.04 516.62) rotate(18) scale(0.77)">
        <ellipse cx="0" cy="8" rx="66" ry="58" fill="#684118"/>
        <ellipse cx="0" cy="0" rx="64" ry="54" fill="#D7A662"/>
        <ellipse cx="-12" cy="-14" rx="44" ry="28" fill="#dfb881" opacity="0.75"/>
        <path d="M -46 22 C -18 34 18 34 46 22" fill="none" stroke="#553514" stroke-width="6" stroke-linecap="round" opacity="0.65"/>
      </g><g transform="translate(582.24 537.18) rotate(27) scale(0.46)">
        <ellipse cx="0" cy="8" rx="66" ry="58" fill="#684118"/>
        <ellipse cx="0" cy="0" rx="64" ry="54" fill="#D7A662"/>
        <ellipse cx="-12" cy="-14" rx="44" ry="28" fill="#dfb881" opacity="0.75"/>
        <path d="M -46 22 C -18 34 18 34 46 22" fill="none" stroke="#553514" stroke-width="6" stroke-linecap="round" opacity="0.65"/>
      </g>
        <ellipse cx="460" cy="512" rx="130" ry="46" fill="#E4B46A" opacity="0.14" filter="url(#blurSoft)"/>
      
  

  <!-- ışık huzmesi -->
  <ellipse cx="690" cy="381.79" rx="150" ry="220" fill="#E4B46A" opacity="0.08" filter="url(#blurWide)"/>

  <rect width="800" height="800" fill="url(#vignette)"/>
  <rect width="800" height="800" filter="url(#grain)" opacity="0.07" style="mix-blend-mode:overlay"/>
</svg>
