<svg xmlns="http://www.w3.org/2000/svg" viewBox="0 0 800 800" width="800" height="800" role="img" aria-hidden="true">
  <defs>
    <linearGradient id="bg" x1="0" y1="0" x2="0" y2="1">
      <stop offset="0" stop-color="#101418"/>
      <stop offset="0.55" stop-color="#0A0D10"/>
      <stop offset="1" stop-color="#050709"/>
    </linearGradient>
    <radialGradient id="keyLight" cx="50%" cy="50%" r="50%">
      <stop offset="0" stop-color="#DFAD69" stop-opacity="0.55"/>
      <stop offset="0.55" stop-color="#DFAD69" stop-opacity="0.14"/>
      <stop offset="1" stop-color="#DFAD69" stop-opacity="0"/>
    </radialGradient>
    <radialGradient id="halo" cx="50%" cy="50%" r="50%">
      <stop offset="0" stop-color="#d29457" stop-opacity="0.3"/>
      <stop offset="1" stop-color="#DFAD69" stop-opacity="0"/>
    </radialGradient>
    <radialGradient id="vignette" cx="50%" cy="46%" r="62%">
      <stop offset="0.45" stop-color="#000" stop-opacity="0"/>
      <stop offset="1" stop-color="#000" stop-opacity="0.72"/>
    </radialGradient>
    <linearGradient id="ceramic" x1="1" y1="0" x2="0" y2="0.35">
      <stop offset="0" stop-color="#554d42"/>
      <stop offset="0.42" stop-color="#2A2F36"/>
      <stop offset="1" stop-color="#0d0f12"/>
    </linearGradient>
    <linearGradient id="glass" x1="1" y1="0" x2="0" y2="0.3">
      <stop offset="0" stop-color="#F5F1EA" stop-opacity="0.16"/>
      <stop offset="0.4" stop-color="#F5F1EA" stop-opacity="0.05"/>
      <stop offset="1" stop-color="#000000" stop-opacity="0.34"/>
    </linearGradient>
    <linearGradient id="brew" x1="0" y1="0" x2="0" y2="1">
      <stop offset="0" stop-color="#D9BE93"/>
      <stop offset="1" stop-color="#6E4622"/>
    </linearGradient>
    <linearGradient id="cakeShade" x1="0" y1="0" x2="0" y2="1">
      <stop offset="0" stop-color="#dfc8a4"/>
      <stop offset="1" stop-color="#58381b"/>
    </linearGradient>
    <linearGradient id="rim" x1="1" y1="0" x2="0" y2="0">
      <stop offset="0" stop-color="#DFAD69" stop-opacity="0.34"/>
      <stop offset="0.32" stop-color="#DFAD69" stop-opacity="0.05"/>
      <stop offset="1" stop-color="#000000" stop-opacity="0.3"/>
    </linearGradient>
    <linearGradient id="rimStroke" x1="1" y1="0" x2="0" y2="0">
      <stop offset="0" stop-color="#eaca9e" stop-opacity="0.9"/>
      <stop offset="0.42" stop-color="#DFAD69" stop-opacity="0.16"/>
      <stop offset="1" stop-color="#DFAD69" stop-opacity="0.03"/>
    </linearGradient>
    <filter id="blurSoft" x="-60%" y="-60%" width="220%" height="220%">
      <feGaussianBlur stdDeviation="22"/>
    </filter>
    <filter id="blurWide" x="-60%" y="-60%" width="220%" height="220%">
      <feGaussianBlur stdDeviation="70"/>
    </filter>
    <filter id="grain">
      <feTurbulence type="fractalNoise" baseFrequency="0.85" numOctaves="3" seed="27"/>
      <feColorMatrix type="saturate" values="0"/>
    </filter>
  </defs>

  <rect width="800" height="800" fill="url(#bg)"/>

  <!-- sıcak yan ışık -->
  <ellipse cx="690" cy="286.56" rx="360" ry="330" fill="url(#keyLight)"/>
  <ellipse cx="400" cy="430" rx="300" ry="260" fill="url(#halo)"/>

  <!-- zemin düzlemi -->
  <rect x="0" y="624" width="800" height="176" fill="#000" opacity="0.28"/>
  <ellipse cx="400" cy="656" rx="354" ry="46" fill="#000" opacity="0.6" filter="url(#blurWide)"/>
  <ellipse cx="370" cy="642" rx="224.2" ry="26" fill="#000" opacity="0.55" filter="url(#blurSoft)"/>

  
  
        
    <ellipse cx="400" cy="642" rx="244" ry="56.12" fill="#0e1013"/>
    <ellipse cx="400" cy="632" rx="244" ry="56.12" fill="url(#ceramic)"/>
    <ellipse cx="400" cy="632" rx="241.56" ry="54.44" fill="none" stroke="#DFAD69" stroke-opacity="0.28" stroke-width="1.6"/>
    <ellipse cx="400" cy="634" rx="146.4" ry="30.87" fill="#0f1114" opacity="0.85"/>
    <path d="M 160.88 630 A 244 56.12 0 0 1 639.12 630"
      fill="none" stroke="#DFAD69" stroke-opacity="0.34" stroke-width="2.4" stroke-linecap="round"/>
  
        <path d="M 576 428 L 630 389.12 L 630 579.12 L 576 610 Z" fill="#482e16"/>
        <path d="M 224 428 L 278 389.12 L 630 389.12 L 576 428 Z" fill="#f3e6c9"/>
        <path d="M 224 428 L 278 389.12 L 630 389.12 L 576 428 Z" fill="#DFAD69" opacity="0.1"/>
        <clipPath id="cakeClip"><path d="M 224 428 L 576 428 L 576 610 Q 576 618 566 618 L 234 618 Q 224 618 224 610 Z"/></clipPath>
        <g clip-path="url(#cakeClip)">
          <rect x="224" y="428" width="352" height="48.5" fill="#D9BE93"/><rect x="224" y="475.5" width="352" height="48.5" fill="#9e7c55"/><rect x="224" y="472.5" width="352" height="6" fill="#000" opacity="0.22"/><rect x="224" y="523" width="352" height="48.5" fill="#6E4622"/><rect x="224" y="520" width="352" height="6" fill="#000" opacity="0.22"/><rect x="224" y="570.5" width="352" height="48.5" fill="#ae8e66"/><rect x="224" y="567.5" width="352" height="6" fill="#000" opacity="0.22"/>
          <rect x="224" y="428" width="80.96" height="200" fill="#000" opacity="0.32"/>
          <rect x="495.04" y="428" width="80.96" height="200" fill="#000" opacity="0.05"/>
          <rect x="224" y="428" width="352" height="200" fill="url(#rim)" opacity="0.5"/>
        </g>
        <path d="M 224 428 L 576 428 L 576 610 Q 576 618 566 618 L 234 618 Q 224 618 224 610 Z" fill="none" stroke="url(#rimStroke)" stroke-width="2.4"/>
      
  <circle cx="327.06" cy="406.94" r="1.71" fill="#3A2010" opacity="0.79"/><circle cx="469.76" cy="401.02" r="2.39" fill="#3A2010" opacity="0.76"/><circle cx="381.29" cy="444.72" r="3.01" fill="#3A2010" opacity="0.49"/><circle cx="409.4" cy="402.53" r="1.61" fill="#3A2010" opacity="0.76"/><circle cx="455.77" cy="379.09" r="2.87" fill="#3A2010" opacity="0.55"/><circle cx="484.15" cy="397.3" r="3.55" fill="#3A2010" opacity="0.5"/><circle cx="530.82" cy="431.64" r="1.59" fill="#3A2010" opacity="0.4"/><circle cx="460.06" cy="429.45" r="3.13" fill="#3A2010" opacity="0.72"/><circle cx="473.96" cy="411.48" r="2.77" fill="#3A2010" opacity="0.42"/><circle cx="493.92" cy="387.05" r="2.22" fill="#3A2010" opacity="0.48"/><circle cx="409.57" cy="379.26" r="3.19" fill="#3A2010" opacity="0.45"/><circle cx="554.1" cy="395.25" r="1.85" fill="#3A2010" opacity="0.6"/><circle cx="560.02" cy="407.8" r="3.6" fill="#3A2010" opacity="0.62"/><circle cx="391.67" cy="414.39" r="2.26" fill="#3A2010" opacity="0.56"/><circle cx="460.06" cy="407.91" r="1.36" fill="#3A2010" opacity="0.76"/><circle cx="531.83" cy="413.24" r="3.11" fill="#3A2010" opacity="0.63"/><circle cx="458.14" cy="404.12" r="2.57" fill="#3A2010" opacity="0.68"/><circle cx="432.72" cy="440.48" r="2.92" fill="#3A2010" opacity="0.72"/><circle cx="411.35" cy="399.51" r="1.87" fill="#3A2010" opacity="0.46"/><circle cx="559.98" cy="407.41" r="3" fill="#3A2010" opacity="0.71"/><circle cx="355.9" cy="425.74" r="2.25" fill="#3A2010" opacity="0.56"/><circle cx="440.41" cy="424.43" r="3.32" fill="#3A2010" opacity="0.43"/><circle cx="529.6" cy="416.02" r="1.76" fill="#3A2010" opacity="0.53"/><circle cx="483.7" cy="383.38" r="2.73" fill="#3A2010" opacity="0.57"/><circle cx="461.04" cy="381.92" r="2.25" fill="#3A2010" opacity="0.76"/><circle cx="489.09" cy="414.95" r="3.38" fill="#3A2010" opacity="0.49"/><circle cx="382.31" cy="439.2" r="3.03" fill="#3A2010" opacity="0.63"/><circle cx="476.16" cy="399.29" r="2.91" fill="#3A2010" opacity="0.41"/><circle cx="451.11" cy="435.46" r="1.25" fill="#3A2010" opacity="0.78"/><circle cx="554.24" cy="393.88" r="3.53" fill="#3A2010" opacity="0.42"/><circle cx="465.48" cy="413.68" r="1.47" fill="#3A2010" opacity="0.55"/><circle cx="403.11" cy="442.74" r="2.5" fill="#3A2010" opacity="0.65"/><circle cx="453.83" cy="401.75" r="2.3" fill="#3A2010" opacity="0.69"/><circle cx="551.96" cy="400.16" r="2.1" fill="#3A2010" opacity="0.44"/><circle cx="334.92" cy="407.07" r="2.67" fill="#3A2010" opacity="0.61"/><circle cx="418.34" cy="371.47" r="1.56" fill="#3A2010" opacity="0.57"/><circle cx="376.52" cy="390.12" r="2.09" fill="#3A2010" opacity="0.53"/><circle cx="342.62" cy="389.73" r="2.49" fill="#3A2010" opacity="0.72"/><circle cx="292.91" cy="408.31" r="1.79" fill="#3A2010" opacity="0.75"/><circle cx="434.87" cy="394.01" r="3.16" fill="#3A2010" opacity="0.76"/>

  <!-- ışık huzmesi -->
  <ellipse cx="690" cy="376.56" rx="150" ry="220" fill="#DFAD69" opacity="0.08" filter="url(#blurWide)"/>

  <rect width="800" height="800" fill="url(#vignette)"/>
  <rect width="800" height="800" filter="url(#grain)" opacity="0.07" style="mix-blend-mode:overlay"/>
</svg>
