<svg xmlns="http://www.w3.org/2000/svg" viewBox="0 0 800 800" width="800" height="800" role="img" aria-hidden="true">
  <defs>
    <linearGradient id="bg" x1="0" y1="0" x2="0" y2="1">
      <stop offset="0" stop-color="#101418"/>
      <stop offset="0.55" stop-color="#0A0D10"/>
      <stop offset="1" stop-color="#050709"/>
    </linearGradient>
    <radialGradient id="keyLight" cx="50%" cy="50%" r="50%">
      <stop offset="0" stop-color="#D49A56" stop-opacity="0.55"/>
      <stop offset="0.55" stop-color="#D49A56" stop-opacity="0.14"/>
      <stop offset="1" stop-color="#D49A56" stop-opacity="0"/>
    </radialGradient>
    <radialGradient id="halo" cx="50%" cy="50%" r="50%">
      <stop offset="0" stop-color="#cc8a4e" stop-opacity="0.3"/>
      <stop offset="1" stop-color="#D49A56" stop-opacity="0"/>
    </radialGradient>
    <radialGradient id="vignette" cx="50%" cy="46%" r="62%">
      <stop offset="0.45" stop-color="#000" stop-opacity="0"/>
      <stop offset="1" stop-color="#000" stop-opacity="0.72"/>
    </radialGradient>
    <linearGradient id="ceramic" x1="0" y1="0" x2="1" y2="0.35">
      <stop offset="0" stop-color="#53493e"/>
      <stop offset="0.42" stop-color="#2A2F36"/>
      <stop offset="1" stop-color="#0d0f12"/>
    </linearGradient>
    <linearGradient id="glass" x1="0" y1="0" x2="1" y2="0.3">
      <stop offset="0" stop-color="#F5F1EA" stop-opacity="0.16"/>
      <stop offset="0.4" stop-color="#F5F1EA" stop-opacity="0.05"/>
      <stop offset="1" stop-color="#000000" stop-opacity="0.34"/>
    </linearGradient>
    <linearGradient id="brew" x1="0" y1="0" x2="0" y2="1">
      <stop offset="0" stop-color="#6A3F22"/>
      <stop offset="1" stop-color="#1C0C05"/>
    </linearGradient>
    <linearGradient id="cakeShade" x1="0" y1="0" x2="0" y2="1">
      <stop offset="0" stop-color="#825e45"/>
      <stop offset="1" stop-color="#160a04"/>
    </linearGradient>
    <linearGradient id="rim" x1="0" y1="0" x2="1" y2="0">
      <stop offset="0" stop-color="#D49A56" stop-opacity="0.34"/>
      <stop offset="0.32" stop-color="#D49A56" stop-opacity="0.05"/>
      <stop offset="1" stop-color="#000000" stop-opacity="0.3"/>
    </linearGradient>
    <linearGradient id="rimStroke" x1="0" y1="0" x2="1" y2="0">
      <stop offset="0" stop-color="#e3bd91" stop-opacity="0.9"/>
      <stop offset="0.42" stop-color="#D49A56" stop-opacity="0.16"/>
      <stop offset="1" stop-color="#D49A56" stop-opacity="0.03"/>
    </linearGradient>
    <filter id="blurSoft" x="-60%" y="-60%" width="220%" height="220%">
      <feGaussianBlur stdDeviation="22"/>
    </filter>
    <filter id="blurWide" x="-60%" y="-60%" width="220%" height="220%">
      <feGaussianBlur stdDeviation="70"/>
    </filter>
    <filter id="grain">
      <feTurbulence type="fractalNoise" baseFrequency="0.85" numOctaves="3" seed="14"/>
      <feColorMatrix type="saturate" values="0"/>
    </filter>
  </defs>

  <rect width="800" height="800" fill="url(#bg)"/>

  <!-- sıcak yan ışık -->
  <ellipse cx="110" cy="290.04" rx="360" ry="330" fill="url(#keyLight)"/>
  <ellipse cx="400" cy="430" rx="300" ry="260" fill="url(#halo)"/>

  <!-- zemin düzlemi -->
  <rect x="0" y="634" width="800" height="166" fill="#000" opacity="0.28"/>
  <ellipse cx="400" cy="666" rx="225" ry="46" fill="#000" opacity="0.6" filter="url(#blurWide)"/>
  <ellipse cx="430" cy="652" rx="142.5" ry="26" fill="#000" opacity="0.55" filter="url(#blurSoft)"/>

  <path d="M 345.17 364 C 289.37 300.26 400.98 232.54 317.27 164.82"
      fill="none" stroke="#F5F1EA" stroke-opacity="0.16" stroke-width="9.23" stroke-linecap="round" filter="url(#blurSoft)"/><path d="M 400 364 C 360.43 266.76 439.57 163.44 380.22 60.12"
      fill="none" stroke="#F5F1EA" stroke-opacity="0.15" stroke-width="13.46" stroke-linecap="round" filter="url(#blurSoft)"/><path d="M 449.17 364 C 488.55 302.49 409.8 237.13 468.86 171.78"
      fill="none" stroke="#F5F1EA" stroke-opacity="0.12" stroke-width="9.44" stroke-linecap="round" filter="url(#blurSoft)"/>
  
        
    <path d="M 284.64 444 C 192.64 438 192.64 578 284.64 568"
      fill="none" stroke="url(#ceramic)" stroke-width="22" stroke-linecap="round"/>
    <path d="M 284.64 444 C 192.64 438 192.64 578 284.64 568"
      fill="none" stroke="#D49A56" stroke-opacity="0.3" stroke-width="2" stroke-linecap="round"/>
  
        
    <path d="M 284 392 C 286 522.9 288 587.16 296 620 Q 296 630 325.12 632 L 474.88 632 Q 504 630 504 620 C 512 587.16 514 522.9 516 392 Z" fill="url(#ceramic)"/>
    <path d="M 284 392 C 286 522.9 288 587.16 296 620 Q 296 630 325.12 632 L 474.88 632 Q 504 630 504 620 C 512 587.16 514 522.9 516 392 Z" fill="url(#rim)" opacity="0.85"/>
    <path d="M 284 392 C 286 522.9 288 587.16 296 620 Q 296 630 325.12 632 L 474.88 632 Q 504 630 504 620 C 512 587.16 514 522.9 516 392 Z" fill="none" stroke="url(#rimStroke)" stroke-width="2.6"/>
  
        
    <ellipse cx="400" cy="392" rx="104" ry="25" fill="#120803"/>
    <ellipse cx="400" cy="392" rx="97.76" ry="22.5" fill="#D9BE96"/>
    <ellipse cx="369.41" cy="387.5" rx="43.68" ry="10.5" fill="#D49A56" opacity="0.22"/>
    <ellipse cx="440" cy="397.5" rx="52" ry="10" fill="#0e0603" opacity="0.5"/>
  
      
  <circle cx="478.15" cy="379.22" r="3.03" fill="#3A2010" opacity="0.79"/><circle cx="382.51" cy="406.99" r="1.42" fill="#3A2010" opacity="0.74"/><circle cx="357.79" cy="378.21" r="3.18" fill="#3A2010" opacity="0.54"/><circle cx="467.66" cy="401.03" r="3.29" fill="#3A2010" opacity="0.53"/><circle cx="348.15" cy="399.43" r="2.61" fill="#3A2010" opacity="0.64"/><circle cx="442.41" cy="392.39" r="1.89" fill="#3A2010" opacity="0.48"/><circle cx="453.75" cy="395.45" r="1.21" fill="#3A2010" opacity="0.75"/><circle cx="429.38" cy="373.54" r="2" fill="#3A2010" opacity="0.53"/><circle cx="423.54" cy="378.94" r="3.13" fill="#3A2010" opacity="0.59"/><circle cx="470.51" cy="401.46" r="2.85" fill="#3A2010" opacity="0.46"/><circle cx="361.68" cy="404.05" r="2.08" fill="#3A2010" opacity="0.47"/><circle cx="446.99" cy="404.53" r="2.41" fill="#3A2010" opacity="0.74"/><circle cx="411.48" cy="372.63" r="1.26" fill="#3A2010" opacity="0.76"/><circle cx="492.86" cy="387.14" r="3.38" fill="#3A2010" opacity="0.75"/><circle cx="319.64" cy="386.97" r="1.8" fill="#3A2010" opacity="0.46"/><circle cx="403.85" cy="389.98" r="2.92" fill="#3A2010" opacity="0.71"/><circle cx="386.15" cy="399.32" r="1.89" fill="#3A2010" opacity="0.48"/><circle cx="348" cy="383.34" r="2.81" fill="#3A2010" opacity="0.7"/><circle cx="470.17" cy="412.73" r="1.77" fill="#3A2010" opacity="0.64"/><circle cx="447.79" cy="395" r="3.13" fill="#3A2010" opacity="0.7"/><circle cx="360.21" cy="405.74" r="1.38" fill="#3A2010" opacity="0.65"/><circle cx="409.04" cy="364.43" r="1.32" fill="#3A2010" opacity="0.79"/><circle cx="459.12" cy="376.34" r="3.04" fill="#3A2010" opacity="0.75"/><circle cx="353.44" cy="394.73" r="2.41" fill="#3A2010" opacity="0.66"/><circle cx="337.14" cy="411.52" r="2.96" fill="#3A2010" opacity="0.52"/><circle cx="331.75" cy="401.08" r="1.81" fill="#3A2010" opacity="0.72"/><circle cx="445.45" cy="389.5" r="1.63" fill="#3A2010" opacity="0.41"/><circle cx="367.79" cy="392.61" r="2.04" fill="#3A2010" opacity="0.77"/><circle cx="420.82" cy="385.4" r="1.99" fill="#3A2010" opacity="0.5"/><circle cx="390.09" cy="373.23" r="2.31" fill="#3A2010" opacity="0.41"/><circle cx="391.75" cy="386.66" r="2.37" fill="#3A2010" opacity="0.76"/><circle cx="425.18" cy="409.8" r="3.44" fill="#3A2010" opacity="0.53"/><circle cx="334.93" cy="407.4" r="2.6" fill="#3A2010" opacity="0.72"/><circle cx="378.62" cy="389.02" r="2.71" fill="#3A2010" opacity="0.44"/><circle cx="386.04" cy="370.42" r="3.18" fill="#3A2010" opacity="0.65"/><circle cx="428.49" cy="402.87" r="1.87" fill="#3A2010" opacity="0.75"/><circle cx="351.15" cy="371.74" r="3" fill="#3A2010" opacity="0.43"/><circle cx="351.73" cy="366.29" r="1.28" fill="#3A2010" opacity="0.68"/><circle cx="331.81" cy="400.96" r="3.08" fill="#3A2010" opacity="0.66"/><circle cx="428.48" cy="383.1" r="3.04" fill="#3A2010" opacity="0.79"/>

  <!-- ışık huzmesi -->
  <ellipse cx="110" cy="380.04" rx="150" ry="220" fill="#D49A56" opacity="0.08" filter="url(#blurWide)"/>

  <rect width="800" height="800" fill="url(#vignette)"/>
  <rect width="800" height="800" filter="url(#grain)" opacity="0.07" style="mix-blend-mode:overlay"/>
</svg>
