<svg xmlns="http://www.w3.org/2000/svg" viewBox="0 0 1600 1000" width="1600" height="1000" role="img" aria-hidden="true">
  <defs>
    <linearGradient id="bg" x1="0" y1="0" x2="0" y2="1">
      <stop offset="0" stop-color="#12161A"/>
      <stop offset="0.6" stop-color="#0A0D10"/>
      <stop offset="1" stop-color="#050709"/>
    </linearGradient>
    <radialGradient id="key" cx="50%" cy="50%" r="50%">
      <stop offset="0" stop-color="#E4B46A" stop-opacity="0.5"/>
      <stop offset="0.5" stop-color="#C47A45" stop-opacity="0.16"/>
      <stop offset="1" stop-color="#C47A45" stop-opacity="0"/>
    </radialGradient>
    <radialGradient id="vignette" cx="50%" cy="44%" r="64%">
      <stop offset="0.4" stop-color="#000" stop-opacity="0"/>
      <stop offset="1" stop-color="#000" stop-opacity="0.8"/>
    </radialGradient>
    <linearGradient id="steel" x1="0" y1="0" x2="1" y2="0.4">
      <stop offset="0" stop-color="#3A4048"/>
      <stop offset="0.35" stop-color="#20252B"/>
      <stop offset="0.72" stop-color="#4A5058"/>
      <stop offset="1" stop-color="#14181C"/>
    </linearGradient>
    <linearGradient id="cup" x1="1" y1="0" x2="0" y2="0.4">
      <stop offset="0" stop-color="#3A4048"/>
      <stop offset="0.5" stop-color="#22272D"/>
      <stop offset="1" stop-color="#0E1114"/>
    </linearGradient>
    <linearGradient id="pour" x1="0" y1="0" x2="0" y2="1">
      <stop offset="0" stop-color="#6B3E1C" stop-opacity="0.9"/>
      <stop offset="0.5" stop-color="#B87A3E" stop-opacity="0.95"/>
      <stop offset="1" stop-color="#D89A54" stop-opacity="0.85"/>
    </linearGradient>
    <filter id="blurSoft" x="-60%" y="-60%" width="220%" height="220%"><feGaussianBlur stdDeviation="26"/></filter>
    <filter id="blurWide" x="-60%" y="-60%" width="220%" height="220%"><feGaussianBlur stdDeviation="80"/></filter>
    <filter id="grain"><feTurbulence type="fractalNoise" baseFrequency="0.8" numOctaves="3" seed="7"/><feColorMatrix type="saturate" values="0"/></filter>
  </defs>

  <rect width="1600" height="1000" fill="url(#bg)"/>
  <ellipse cx="1180" cy="300" rx="620" ry="520" fill="url(#key)"/>
  <ellipse cx="300" cy="700" rx="440" ry="360" fill="#C47A45" opacity="0.07" filter="url(#blurWide)"/>

  <!-- arka plan: makine gövdesi -->
  <rect x="440" y="60" width="720" height="330" rx="26" fill="#0E1216"/>
  <rect x="440" y="60" width="720" height="330" rx="26" fill="url(#steel)" opacity="0.5"/>
  <rect x="470" y="96" width="660" height="10" rx="5" fill="#E4B46A" opacity="0.18"/>
  <circle cx="560" cy="220" r="52" fill="#171B20"/>
  <circle cx="560" cy="220" r="52" fill="none" stroke="#E4B46A" stroke-opacity="0.28" stroke-width="3"/>
  <circle cx="560" cy="220" r="30" fill="#0A0D10"/>
  <circle cx="1044" cy="220" r="52" fill="#171B20"/>
  <circle cx="1044" cy="220" r="52" fill="none" stroke="#C47A45" stroke-opacity="0.24" stroke-width="3"/>

  <!-- grup kafası -->
  <rect x="700" y="330" width="200" height="86" rx="16" fill="url(#steel)"/>
  <rect x="726" y="416" width="148" height="42" rx="12" fill="#1A1F25"/>
  <rect x="600" y="424" width="152" height="26" rx="12" fill="url(#steel)"/>
  <rect x="740" y="452" width="120" height="26" rx="10" fill="#2A3038"/>
  <rect x="700" y="330" width="200" height="14" rx="7" fill="#E4B46A" opacity="0.16"/>

  <!-- espresso akışı -->
  <path d="M 772 476 C 770 540 768 580 770 620" stroke="url(#pour)" stroke-width="9" fill="none" stroke-linecap="round"/>
  <path d="M 828 476 C 830 540 832 580 830 620" stroke="url(#pour)" stroke-width="9" fill="none" stroke-linecap="round"/>
  <path d="M 772 476 C 770 540 768 580 770 620" stroke="#E4B46A" stroke-opacity="0.5" stroke-width="2.5" fill="none" stroke-linecap="round"/>
  <path d="M 828 476 C 830 540 832 580 830 620" stroke="#E4B46A" stroke-opacity="0.5" stroke-width="2.5" fill="none" stroke-linecap="round"/>

  <path d="M 731 560 C 656.91 430.51 805.09 301.01 701.36 179.14"
      fill="none" stroke="#F5F1EA" stroke-opacity="0.11" stroke-width="14.02" stroke-linecap="round" filter="url(#blurSoft)"/><path d="M 777 560 C 838.12 430.09 715.88 300.18 801.45 177.91"
      fill="none" stroke="#F5F1EA" stroke-opacity="0.11" stroke-width="18.64" stroke-linecap="round" filter="url(#blurSoft)"/><path d="M 823 560 C 880.16 455.4 765.84 350.79 845.86 252.35"
      fill="none" stroke="#F5F1EA" stroke-opacity="0.12" stroke-width="16.39" stroke-linecap="round" filter="url(#blurSoft)"/><path d="M 869 560 C 824.02 415.41 913.98 270.81 851.01 134.72"
      fill="none" stroke="#F5F1EA" stroke-opacity="0.13" stroke-width="14.82" stroke-linecap="round" filter="url(#blurSoft)"/>

  <!-- tezgâh -->
  <rect x="0" y="700" width="1600" height="300" fill="#07090B"/>
  <rect x="0" y="700" width="1600" height="4" fill="#E4B46A" opacity="0.14"/>
  <ellipse cx="800" cy="712" rx="420" ry="60" fill="#000" opacity="0.7" filter="url(#blurWide)"/>

  <!-- fincan -->
  <ellipse cx="800" cy="706" rx="150" ry="26" fill="#000" opacity="0.66" filter="url(#blurSoft)"/>
  <path d="M 694 606 C 696 654 706 682 716 692 Q 800 706 884 692 C 894 682 904 654 906 606 Z" fill="url(#cup)"/>
  <path d="M 900 620 C 946 616 950 668 908 672" fill="none" stroke="url(#cup)" stroke-width="20" stroke-linecap="round"/>
  <ellipse cx="800" cy="606" rx="106" ry="24" fill="#12161A"/>
  <ellipse cx="800" cy="606" rx="98" ry="20" fill="#3E2413"/>
  <ellipse cx="826" cy="602" rx="52" ry="11" fill="#C08A55" opacity="0.5"/>
  <path d="M 694 606 C 696 654 706 682 716 692 Q 800 706 884 692 C 894 682 904 654 906 606"
    fill="none" stroke="#E4B46A" stroke-opacity="0.34" stroke-width="2.6"/>

  <g transform="translate(383.03 824.12) rotate(157.66) scale(0.73)" opacity="0.62">
      <ellipse cx="0" cy="0" rx="30" ry="20" fill="#3E2210"/>
      <ellipse cx="-5" cy="-5" rx="22" ry="12" fill="#7A4A24" opacity="0.7"/>
      <path d="M -22 0 C -10 -10 10 -10 22 0" fill="none" stroke="#160A03" stroke-width="5" stroke-linecap="round"/>
    </g><g transform="translate(259.78 840.15) rotate(81.53) scale(0.97)" opacity="0.58">
      <ellipse cx="0" cy="0" rx="30" ry="20" fill="#3E2210"/>
      <ellipse cx="-5" cy="-5" rx="22" ry="12" fill="#7A4A24" opacity="0.7"/>
      <path d="M -22 0 C -10 -10 10 -10 22 0" fill="none" stroke="#160A03" stroke-width="5" stroke-linecap="round"/>
    </g><g transform="translate(710.5 796.8) rotate(163.08) scale(0.87)" opacity="0.71">
      <ellipse cx="0" cy="0" rx="30" ry="20" fill="#3E2210"/>
      <ellipse cx="-5" cy="-5" rx="22" ry="12" fill="#7A4A24" opacity="0.7"/>
      <path d="M -22 0 C -10 -10 10 -10 22 0" fill="none" stroke="#160A03" stroke-width="5" stroke-linecap="round"/>
    </g><g transform="translate(1318.06 864) rotate(35.88) scale(0.98)" opacity="0.69">
      <ellipse cx="0" cy="0" rx="30" ry="20" fill="#3E2210"/>
      <ellipse cx="-5" cy="-5" rx="22" ry="12" fill="#7A4A24" opacity="0.7"/>
      <path d="M -22 0 C -10 -10 10 -10 22 0" fill="none" stroke="#160A03" stroke-width="5" stroke-linecap="round"/>
    </g><g transform="translate(933.64 879.65) rotate(39.73) scale(1.09)" opacity="0.48">
      <ellipse cx="0" cy="0" rx="30" ry="20" fill="#3E2210"/>
      <ellipse cx="-5" cy="-5" rx="22" ry="12" fill="#7A4A24" opacity="0.7"/>
      <path d="M -22 0 C -10 -10 10 -10 22 0" fill="none" stroke="#160A03" stroke-width="5" stroke-linecap="round"/>
    </g><g transform="translate(796.92 824.18) rotate(24.47) scale(0.67)" opacity="0.64">
      <ellipse cx="0" cy="0" rx="30" ry="20" fill="#3E2210"/>
      <ellipse cx="-5" cy="-5" rx="22" ry="12" fill="#7A4A24" opacity="0.7"/>
      <path d="M -22 0 C -10 -10 10 -10 22 0" fill="none" stroke="#160A03" stroke-width="5" stroke-linecap="round"/>
    </g><g transform="translate(633 877.99) rotate(136.28) scale(0.75)" opacity="0.49">
      <ellipse cx="0" cy="0" rx="30" ry="20" fill="#3E2210"/>
      <ellipse cx="-5" cy="-5" rx="22" ry="12" fill="#7A4A24" opacity="0.7"/>
      <path d="M -22 0 C -10 -10 10 -10 22 0" fill="none" stroke="#160A03" stroke-width="5" stroke-linecap="round"/>
    </g><g transform="translate(1411.27 866.49) rotate(120.44) scale(0.81)" opacity="0.68">
      <ellipse cx="0" cy="0" rx="30" ry="20" fill="#3E2210"/>
      <ellipse cx="-5" cy="-5" rx="22" ry="12" fill="#7A4A24" opacity="0.7"/>
      <path d="M -22 0 C -10 -10 10 -10 22 0" fill="none" stroke="#160A03" stroke-width="5" stroke-linecap="round"/>
    </g><g transform="translate(1452.96 814.47) rotate(90.94) scale(0.73)" opacity="0.45">
      <ellipse cx="0" cy="0" rx="30" ry="20" fill="#3E2210"/>
      <ellipse cx="-5" cy="-5" rx="22" ry="12" fill="#7A4A24" opacity="0.7"/>
      <path d="M -22 0 C -10 -10 10 -10 22 0" fill="none" stroke="#160A03" stroke-width="5" stroke-linecap="round"/>
    </g>

  <rect width="1600" height="1000" fill="url(#vignette)"/>
  <rect width="1600" height="1000" filter="url(#grain)" opacity="0.07" style="mix-blend-mode:overlay"/>
</svg>
